# xmcd
#
# Track frame offsets: 
#        150
#        19907
#        39912
#        56382
#        70952
#        92727
#        116080
#        150177
#        174337
#        199420
#        221372
#        242552
#        256490
#
# Disc length: 3591 seconds
#
# Revision: 2
# Processed by: cddbd v1.5.2PL0 Copyright (c) Steve Scherf et al.
# Submitted via: ExactAudioCopy v1.0b3
#
DISCID=a80e050d
DTITLE=Char - Singles 1976-2005 Disc 2 B-Side Disc UPCH-1511-3
DYEAR=2006
DGENRE=J-Rock
TTITLE0=SHININ' YOU, SHININ' DAY
TTITLE1=ふるえて眠れ （Single version）
TTITLE2=TOKYO NIGHT
TTITLE3=マドンナを堕落させよう
TTITLE4=TOMORROW IS COMING FOR ME
TTITLE5=左胸の砂丘
TTITLE6=SHININ' YOU, SHININ' DAY
TTITLE7=BLACK SHOES (by BAHO)
TTITLE8=DAN DAN DANG
TTITLE9=Back then and Now
TTITLE10=HOPE
TTITLE11=Water Business (remix)
TTITLE12=Piano (English version)
EXTD=YEAR: 2006
EXTT0=
EXTT1=
EXTT2=
EXTT3=
EXTT4=
EXTT5=
EXTT6=
EXTT7=
EXTT8=
EXTT9=
EXTT10=
EXTT11=
EXTT12=
PLAYORDER=
